<?xml version="1.0" encoding="utf-8" standalone="no"?>
<!DOCTYPE svg PUBLIC "-//W3C//DTD SVG 1.1//EN"
  "http://www.w3.org/Graphics/SVG/1.1/DTD/svg11.dtd">
<svg xmlns:xlink="http://www.w3.org/1999/xlink" width="737.220156pt" height="318.51625pt" viewBox="0 0 737.220156 318.51625" xmlns="http://www.w3.org/2000/svg" version="1.1">
 <metadata>
  <rdf:RDF xmlns:dc="http://purl.org/dc/elements/1.1/" xmlns:cc="http://creativecommons.org/ns#" xmlns:rdf="http://www.w3.org/1999/02/22-rdf-syntax-ns#">
   <cc:Work>
    <dc:type rdf:resource="http://purl.org/dc/dcmitype/StillImage"/>
    <dc:date>2026-09-30T02:37:45.068983</dc:date>
    <dc:format>image/svg+xml</dc:format>
    <dc:creator>
     <cc:Agent>
      <dc:title>Matplotlib v3.10.0, https://matplotlib.org/</dc:title>
     </cc:Agent>
    </dc:creator>
   </cc:Work>
  </rdf:RDF>
 </metadata>
 <defs>
  <style type="text/css">*{stroke-linejoin: round; stroke-linecap: butt}</style>
 </defs>
 <g id="figure_1">
  <g id="patch_1">
   <path d="M 0 318.51625 
L 737.220156 318.51625 
L 737.220156 0 
L 0 0 
z
" style="fill: #ffffff"/>
  </g>
  <g id="axes_1">
   <g id="patch_2">
    <path d="M 44.45875 279.66 
L 354.94375 279.66 
L 354.94375 55.44 
L 44.45875 55.44 
z
" style="fill: #ffffff"/>
   </g>
   <g id="matplotlib.axis_1">
    <g id="xtick_1">
     <g id="line2d_1">
      <defs>
       <path id="m5c785a90ad" d="M 0 0 
L 0 4.8 
" style="stroke: #262626"/>
      </defs>
      <g>
       <use xlink:href="#m5c785a90ad" x="44.45875" y="279.66" style="fill: #262626; stroke: #262626"/>
      </g>
     </g>
     <g id="text_1">
      <text style="font-size: 9px; font-family: 'DejaVu Sans', 'Arial', sans-serif; text-anchor: middle; fill: #262626" x="44.45875" y="294.798594" transform="rotate(-0 44.45875 294.798594)">0.0</text>
     </g>
    </g>
    <g id="xtick_2">
     <g id="line2d_2">
      <g>
       <use xlink:href="#m5c785a90ad" x="106.55575" y="279.66" style="fill: #262626; stroke: #262626"/>
      </g>
     </g>
     <g id="text_2">
      <text style="font-size: 9px; font-family: 'DejaVu Sans', 'Arial', sans-serif; text-anchor: middle; fill: #262626" x="106.55575" y="294.798594" transform="rotate(-0 106.55575 294.798594)">0.2</text>
     </g>
    </g>
    <g id="xtick_3">
     <g id="line2d_3">
      <g>
       <use xlink:href="#m5c785a90ad" x="168.65275" y="279.66" style="fill: #262626; stroke: #262626"/>
      </g>
     </g>
     <g id="text_3">
      <text style="font-size: 9px; font-family: 'DejaVu Sans', 'Arial', sans-serif; text-anchor: middle; fill: #262626" x="168.65275" y="294.798594" transform="rotate(-0 168.65275 294.798594)">0.4</text>
     </g>
    </g>
    <g id="xtick_4">
     <g id="line2d_4">
      <g>
       <use xlink:href="#m5c785a90ad" x="230.74975" y="279.66" style="fill: #262626; stroke: #262626"/>
      </g>
     </g>
     <g id="text_4">
      <text style="font-size: 9px; font-family: 'DejaVu Sans', 'Arial', sans-serif; text-anchor: middle; fill: #262626" x="230.74975" y="294.798594" transform="rotate(-0 230.74975 294.798594)">0.6</text>
     </g>
    </g>
    <g id="xtick_5">
     <g id="line2d_5">
      <g>
       <use xlink:href="#m5c785a90ad" x="292.84675" y="279.66" style="fill: #262626; stroke: #262626"/>
      </g>
     </g>
     <g id="text_5">
      <text style="font-size: 9px; font-family: 'DejaVu Sans', 'Arial', sans-serif; text-anchor: middle; fill: #262626" x="292.84675" y="294.798594" transform="rotate(-0 292.84675 294.798594)">0.8</text>
     </g>
    </g>
    <g id="xtick_6">
     <g id="line2d_6">
      <g>
       <use xlink:href="#m5c785a90ad" x="354.94375" y="279.66" style="fill: #262626; stroke: #262626"/>
      </g>
     </g>
     <g id="text_6">
      <text style="font-size: 9px; font-family: 'DejaVu Sans', 'Arial', sans-serif; text-anchor: middle; fill: #262626" x="354.94375" y="294.798594" transform="rotate(-0 354.94375 294.798594)">1.0</text>
     </g>
    </g>
    <g id="text_7">
     <text style="font-size: 11px; font-family: 'DejaVu Sans', 'Arial', sans-serif; text-anchor: middle; fill: #262626" x="199.70125" y="309.028594" transform="rotate(-0 199.70125 309.028594)">False positive rate</text>
    </g>
   </g>
   <g id="matplotlib.axis_2">
    <g id="ytick_1">
     <g id="line2d_7">
      <defs>
       <path id="m25b122701e" d="M 0 0 
L -4.8 0 
" style="stroke: #262626"/>
      </defs>
      <g>
       <use xlink:href="#m25b122701e" x="44.45875" y="279.66" style="fill: #262626; stroke: #262626"/>
      </g>
     </g>
     <g id="text_8">
      <text style="font-size: 9px; font-family: 'DejaVu Sans', 'Arial', sans-serif; text-anchor: end; fill: #262626" x="36.15875" y="283.079297" transform="rotate(-0 36.15875 283.079297)">0.0</text>
     </g>
    </g>
    <g id="ytick_2">
     <g id="line2d_8">
      <g>
       <use xlink:href="#m25b122701e" x="44.45875" y="235.695294" style="fill: #262626; stroke: #262626"/>
      </g>
     </g>
     <g id="text_9">
      <text style="font-size: 9px; font-family: 'DejaVu Sans', 'Arial', sans-serif; text-anchor: end; fill: #262626" x="36.15875" y="239.114591" transform="rotate(-0 36.15875 239.114591)">0.2</text>
     </g>
    </g>
    <g id="ytick_3">
     <g id="line2d_9">
      <g>
       <use xlink:href="#m25b122701e" x="44.45875" y="191.730588" style="fill: #262626; stroke: #262626"/>
      </g>
     </g>
     <g id="text_10">
      <text style="font-size: 9px; font-family: 'DejaVu Sans', 'Arial', sans-serif; text-anchor: end; fill: #262626" x="36.15875" y="195.149885" transform="rotate(-0 36.15875 195.149885)">0.4</text>
     </g>
    </g>
    <g id="ytick_4">
     <g id="line2d_10">
      <g>
       <use xlink:href="#m25b122701e" x="44.45875" y="147.765882" style="fill: #262626; stroke: #262626"/>
      </g>
     </g>
     <g id="text_11">
      <text style="font-size: 9px; font-family: 'DejaVu Sans', 'Arial', sans-serif; text-anchor: end; fill: #262626" x="36.15875" y="151.185179" transform="rotate(-0 36.15875 151.185179)">0.6</text>
     </g>
    </g>
    <g id="ytick_5">
     <g id="line2d_11">
      <g>
       <use xlink:href="#m25b122701e" x="44.45875" y="103.801176" style="fill: #262626; stroke: #262626"/>
      </g>
     </g>
     <g id="text_12">
      <text style="font-size: 9px; font-family: 'DejaVu Sans', 'Arial', sans-serif; text-anchor: end; fill: #262626" x="36.15875" y="107.220473" transform="rotate(-0 36.15875 107.220473)">0.8</text>
     </g>
    </g>
    <g id="ytick_6">
     <g id="line2d_12">
      <g>
       <use xlink:href="#m25b122701e" x="44.45875" y="59.836471" style="fill: #262626; stroke: #262626"/>
      </g>
     </g>
     <g id="text_13">
      <text style="font-size: 9px; font-family: 'DejaVu Sans', 'Arial', sans-serif; text-anchor: end; fill: #262626" x="36.15875" y="63.255767" transform="rotate(-0 36.15875 63.255767)">1.0</text>
     </g>
    </g>
    <g id="text_14">
     <text style="font-size: 11px; font-family: 'DejaVu Sans', 'Arial', sans-serif; text-anchor: middle; fill: #262626" x="15.558281" y="167.55" transform="rotate(-90 15.558281 167.55)">True positive rate</text>
    </g>
   </g>
   <g id="FillBetweenPolyCollection_1">
    <defs>
     <path id="m23bd55cbae" d="M 44.45875 -38.85625 
L 44.45875 -38.85625 
L 45.497161 -143.36375 
L 46.535573 -143.36375 
L 47.573984 -143.36375 
L 48.612395 -143.36375 
L 49.650807 -143.36375 
L 50.689218 -143.36375 
L 51.72763 -143.36375 
L 52.766041 -143.36375 
L 53.804452 -143.36375 
L 54.842864 -143.36375 
L 55.881275 -143.36375 
L 56.919686 -143.36375 
L 57.958098 -143.36375 
L 58.996509 -143.36375 
L 60.034921 -143.36375 
L 61.073332 -143.36375 
L 62.111743 -143.36375 
L 63.150155 -143.36375 
L 64.188566 -143.36375 
L 65.226977 -143.36375 
L 66.265389 -143.36375 
L 67.3038 -143.36375 
L 68.342212 -143.36375 
L 69.380623 -143.36375 
L 70.419034 -143.36375 
L 71.457446 -143.36375 
L 72.495857 -143.36375 
L 73.534268 -178.610691 
L 74.57268 -178.610691 
L 75.611091 -192.859557 
L 76.649503 -192.859557 
L 77.687914 -192.859557 
L 78.726325 -192.859557 
L 79.764737 -192.859557 
L 80.803148 -192.859557 
L 81.841559 -192.859557 
L 82.879971 -192.859557 
L 83.918382 -192.859557 
L 84.956793 -192.859557 
L 85.995205 -192.859557 
L 87.033616 -192.859557 
L 88.072028 -192.859557 
L 89.110439 -192.859557 
L 90.14885 -192.859557 
L 91.187262 -192.859557 
L 92.225673 -192.859557 
L 93.264084 -192.859557 
L 94.302496 -192.859557 
L 95.340907 -192.859557 
L 96.379319 -192.859557 
L 97.41773 -192.859557 
L 98.456141 -192.859557 
L 99.494553 -192.859557 
L 100.532964 -192.859557 
L 101.571375 -213.326548 
L 102.609787 -213.326548 
L 103.648198 -213.326548 
L 104.68661 -213.326548 
L 105.725021 -213.326548 
L 106.763432 -215.00904 
L 107.801844 -215.00904 
L 108.840255 -215.00904 
L 109.878666 -215.00904 
L 110.917078 -215.00904 
L 111.955489 -215.00904 
L 112.993901 -215.00904 
L 114.032312 -215.00904 
L 115.070723 -215.00904 
L 116.109135 -215.00904 
L 117.147546 -215.00904 
L 118.185957 -215.00904 
L 119.224369 -215.00904 
L 120.26278 -215.00904 
L 121.301191 -215.00904 
L 122.339603 -215.00904 
L 123.378014 -215.00904 
L 124.416426 -215.00904 
L 125.454837 -215.00904 
L 126.493248 -215.00904 
L 127.53166 -215.00904 
L 128.570071 -215.00904 
L 129.608482 -230.044829 
L 130.646894 -230.044829 
L 131.685305 -230.044829 
L 132.723717 -230.044829 
L 133.762128 -230.044829 
L 134.800539 -230.044829 
L 135.838951 -230.044829 
L 136.877362 -230.044829 
L 137.915773 -232.561387 
L 138.954185 -232.561387 
L 139.992596 -232.561387 
L 141.031008 -232.561387 
L 142.069419 -232.561387 
L 143.10783 -232.561387 
L 144.146242 -232.561387 
L 145.184653 -232.561387 
L 146.223064 -232.561387 
L 147.261476 -232.561387 
L 148.299887 -232.561387 
L 149.338298 -232.561387 
L 150.37671 -232.561387 
L 151.415121 -232.561387 
L 152.453533 -232.561387 
L 153.491944 -232.561387 
L 154.530355 -232.561387 
L 155.568767 -232.561387 
L 156.607178 -232.561387 
L 157.645589 -234.916307 
L 158.684001 -234.916307 
L 159.722412 -234.916307 
L 160.760824 -234.916307 
L 161.799235 -234.916307 
L 162.837646 -234.916307 
L 163.876058 -234.916307 
L 164.914469 -234.916307 
L 165.95288 -234.916307 
L 166.991292 -234.916307 
L 168.029703 -234.916307 
L 169.068115 -235.760384 
L 170.106526 -235.760384 
L 171.144937 -235.760384 
L 172.183349 -235.760384 
L 173.22176 -235.760384 
L 174.260171 -235.760384 
L 175.298583 -235.760384 
L 176.336994 -235.760384 
L 177.375406 -235.760384 
L 178.413817 -235.760384 
L 179.452228 -235.760384 
L 180.49064 -235.760384 
L 181.529051 -235.760384 
L 182.567462 -235.760384 
L 183.605874 -235.760384 
L 184.644285 -235.760384 
L 185.682696 -237.033562 
L 186.721108 -237.033562 
L 187.759519 -237.033562 
L 188.797931 -237.033562 
L 189.836342 -237.033562 
L 190.874753 -237.033562 
L 191.913165 -237.033562 
L 192.951576 -237.033562 
L 193.989987 -237.033562 
L 195.028399 -237.033562 
L 196.06681 -237.033562 
L 197.105222 -237.033562 
L 198.143633 -237.033562 
L 199.182044 -237.033562 
L 200.220456 -237.934733 
L 201.258867 -237.934733 
L 202.297278 -237.934733 
L 203.33569 -237.934733 
L 204.374101 -237.934733 
L 205.412513 -237.934733 
L 206.450924 -237.934733 
L 207.489335 -237.934733 
L 208.527747 -237.934733 
L 209.566158 -237.934733 
L 210.604569 -237.934733 
L 211.642981 -237.934733 
L 212.681392 -237.934733 
L 213.719804 -237.934733 
L 214.758215 -245.6531 
L 215.796626 -245.6531 
L 216.835038 -245.6531 
L 217.873449 -245.6531 
L 218.91186 -245.6531 
L 219.950272 -245.6531 
L 220.988683 -245.6531 
L 222.027094 -245.6531 
L 223.065506 -245.6531 
L 224.103917 -245.6531 
L 225.142329 -245.6531 
L 226.18074 -245.6531 
L 227.219151 -245.6531 
L 228.257563 -245.6531 
L 229.295974 -245.6531 
L 230.334385 -245.6531 
L 231.372797 -245.6531 
L 232.411208 -245.6531 
L 233.44962 -245.6531 
L 234.488031 -245.6531 
L 235.526442 -245.6531 
L 236.564854 -245.6531 
L 237.603265 -245.6531 
L 238.641676 -245.6531 
L 239.680088 -245.6531 
L 240.718499 -245.6531 
L 241.756911 -245.6531 
L 242.795322 -246.947047 
L 243.833733 -246.947047 
L 244.872145 -246.947047 
L 245.910556 -246.947047 
L 246.948967 -246.947047 
L 247.987379 -246.947047 
L 249.02579 -246.947047 
L 250.064202 -246.947047 
L 251.102613 -246.947047 
L 252.141024 -246.947047 
L 253.179436 -246.947047 
L 254.217847 -246.947047 
L 255.256258 -246.947047 
L 256.29467 -246.947047 
L 257.333081 -246.947047 
L 258.371492 -246.947047 
L 259.409904 -246.947047 
L 260.448315 -246.947047 
L 261.486727 -246.947047 
L 262.525138 -249.886838 
L 263.563549 -249.886838 
L 264.601961 -249.886838 
L 265.640372 -249.886838 
L 266.678783 -249.886838 
L 267.717195 -249.886838 
L 268.755606 -249.886838 
L 269.794018 -249.886838 
L 270.832429 -252.782934 
L 271.87084 -253.004317 
L 272.909252 -253.2257 
L 273.947663 -253.447084 
L 274.986074 -253.668467 
L 276.024486 -253.88985 
L 277.062897 -254.111234 
L 278.101309 -254.332617 
L 279.13972 -254.554 
L 280.178131 -254.775383 
L 281.216543 -254.996767 
L 282.254954 -255.21815 
L 283.293365 -255.439533 
L 284.331777 -255.660916 
L 285.370188 -255.8823 
L 286.408599 -256.103683 
L 287.447011 -256.325066 
L 288.485422 -256.54645 
L 289.523834 -256.767833 
L 290.562245 -256.989216 
L 291.600656 -257.210599 
L 292.639068 -257.431983 
L 293.677479 -257.653366 
L 294.71589 -257.874749 
L 295.754302 -258.096133 
L 296.792713 -258.317516 
L 297.831125 -258.538899 
L 298.869536 -258.679779 
L 299.907947 -258.679779 
L 300.946359 -258.679779 
L 301.98477 -258.679779 
L 303.023181 -258.679779 
L 304.061593 -258.679779 
L 305.100004 -258.679779 
L 306.138416 -258.679779 
L 307.176827 -258.679779 
L 308.215238 -258.679779 
L 309.25365 -258.679779 
L 310.292061 -258.679779 
L 311.330472 -258.679779 
L 312.368884 -258.679779 
L 313.407295 -258.679779 
L 314.445707 -258.679779 
L 315.484118 -258.679779 
L 316.522529 -258.679779 
L 317.560941 -258.679779 
L 318.599352 -258.679779 
L 319.637763 -258.679779 
L 320.676175 -258.679779 
L 321.714586 -258.679779 
L 322.752997 -258.679779 
L 323.791409 -258.679779 
L 324.82982 -258.679779 
L 325.868232 -258.679779 
L 326.906643 -258.679779 
L 327.945054 -258.679779 
L 328.983466 -258.679779 
L 330.021877 -258.679779 
L 331.060288 -258.679779 
L 332.0987 -258.679779 
L 333.137111 -258.679779 
L 334.175523 -258.679779 
L 335.213934 -258.679779 
L 336.252345 -258.679779 
L 337.290757 -258.679779 
L 338.329168 -258.679779 
L 339.367579 -258.679779 
L 340.405991 -258.679779 
L 341.444402 -258.679779 
L 342.482814 -258.679779 
L 343.521225 -258.679779 
L 344.559636 -258.679779 
L 345.598048 -258.679779 
L 346.636459 -258.679779 
L 347.67487 -258.679779 
L 348.713282 -258.679779 
L 349.751693 -258.679779 
L 350.790105 -258.679779 
L 351.828516 -258.679779 
L 352.866927 -258.679779 
L 353.905339 -258.679779 
L 354.94375 -258.679779 
L 354.94375 -258.679779 
L 354.94375 -258.679779 
L 353.905339 -258.679779 
L 352.866927 -258.679779 
L 351.828516 -258.679779 
L 350.790105 -258.679779 
L 349.751693 -258.679779 
L 348.713282 -258.679779 
L 347.67487 -258.679779 
L 346.636459 -258.679779 
L 345.598048 -258.679779 
L 344.559636 -258.679779 
L 343.521225 -258.679779 
L 342.482814 -258.679779 
L 341.444402 -258.679779 
L 340.405991 -258.679779 
L 339.367579 -258.679779 
L 338.329168 -258.679779 
L 337.290757 -258.679779 
L 336.252345 -258.679779 
L 335.213934 -258.679779 
L 334.175523 -258.679779 
L 333.137111 -258.679779 
L 332.0987 -258.679779 
L 331.060288 -258.679779 
L 330.021877 -258.679779 
L 328.983466 -258.679779 
L 327.945054 -258.679779 
L 326.906643 -258.679779 
L 325.868232 -258.679779 
L 324.82982 -258.679779 
L 323.791409 -258.679779 
L 322.752997 -258.679779 
L 321.714586 -258.679779 
L 320.676175 -258.679779 
L 319.637763 -258.679779 
L 318.599352 -258.679779 
L 317.560941 -258.679779 
L 316.522529 -258.679779 
L 315.484118 -258.679779 
L 314.445707 -258.679779 
L 313.407295 -258.679779 
L 312.368884 -258.679779 
L 311.330472 -258.679779 
L 310.292061 -258.679779 
L 309.25365 -258.679779 
L 308.215238 -258.679779 
L 307.176827 -258.679779 
L 306.138416 -258.679779 
L 305.100004 -258.679779 
L 304.061593 -258.679779 
L 303.023181 -258.679779 
L 301.98477 -258.679779 
L 300.946359 -258.679779 
L 299.907947 -258.679779 
L 298.869536 -258.679779 
L 297.831125 -258.679779 
L 296.792713 -258.679779 
L 295.754302 -258.679779 
L 294.71589 -258.679779 
L 293.677479 -258.679779 
L 292.639068 -258.679779 
L 291.600656 -258.679779 
L 290.562245 -258.679779 
L 289.523834 -258.679779 
L 288.485422 -258.679779 
L 287.447011 -258.679779 
L 286.408599 -258.679779 
L 285.370188 -258.679779 
L 284.331777 -258.679779 
L 283.293365 -258.679779 
L 282.254954 -258.679779 
L 281.216543 -258.679779 
L 280.178131 -258.679779 
L 279.13972 -258.679779 
L 278.101309 -258.679779 
L 277.062897 -258.679779 
L 276.024486 -258.679779 
L 274.986074 -258.679779 
L 273.947663 -258.679779 
L 272.909252 -258.679779 
L 271.87084 -258.679779 
L 270.832429 -258.679779 
L 269.794018 -258.679779 
L 268.755606 -258.679779 
L 267.717195 -258.679779 
L 266.678783 -258.679779 
L 265.640372 -258.679779 
L 264.601961 -258.679779 
L 263.563549 -258.679779 
L 262.525138 -258.679779 
L 261.486727 -258.679779 
L 260.448315 -258.679779 
L 259.409904 -258.679779 
L 258.371492 -258.679779 
L 257.333081 -258.679779 
L 256.29467 -258.679779 
L 255.256258 -258.679779 
L 254.217847 -258.679779 
L 253.179436 -258.679779 
L 252.141024 -258.679779 
L 251.102613 -258.679779 
L 250.064202 -258.679779 
L 249.02579 -258.679779 
L 247.987379 -258.679779 
L 246.948967 -258.679779 
L 245.910556 -258.679779 
L 244.872145 -258.679779 
L 243.833733 -258.679779 
L 242.795322 -258.679779 
L 241.756911 -258.679779 
L 240.718499 -258.679779 
L 239.680088 -258.679779 
L 238.641676 -258.679779 
L 237.603265 -258.679779 
L 236.564854 -258.679779 
L 235.526442 -258.679779 
L 234.488031 -258.679779 
L 233.44962 -258.679779 
L 232.411208 -258.679779 
L 231.372797 -258.679779 
L 230.334385 -258.679779 
L 229.295974 -258.679779 
L 228.257563 -258.679779 
L 227.219151 -258.679779 
L 226.18074 -258.679779 
L 225.142329 -258.679779 
L 224.103917 -258.679779 
L 223.065506 -258.679779 
L 222.027094 -258.679779 
L 220.988683 -258.679779 
L 219.950272 -258.679779 
L 218.91186 -258.679779 
L 217.873449 -258.679779 
L 216.835038 -258.679779 
L 215.796626 -258.679779 
L 214.758215 -258.679779 
L 213.719804 -258.679779 
L 212.681392 -258.679779 
L 211.642981 -258.679779 
L 210.604569 -258.679779 
L 209.566158 -258.679779 
L 208.527747 -258.679779 
L 207.489335 -258.679779 
L 206.450924 -258.679779 
L 205.412513 -258.679779 
L 204.374101 -258.679779 
L 203.33569 -258.679779 
L 202.297278 -258.679779 
L 201.258867 -258.679779 
L 200.220456 -258.679779 
L 199.182044 -258.679779 
L 198.143633 -258.679779 
L 197.105222 -258.679779 
L 196.06681 -258.679779 
L 195.028399 -258.679779 
L 193.989987 -258.679779 
L 192.951576 -258.679779 
L 191.913165 -258.679779 
L 190.874753 -258.679779 
L 189.836342 -258.679779 
L 188.797931 -258.679779 
L 187.759519 -258.679779 
L 186.721108 -258.679779 
L 185.682696 -258.679779 
L 184.644285 -258.679779 
L 183.605874 -258.679779 
L 182.567462 -258.679779 
L 181.529051 -258.679779 
L 180.49064 -258.679779 
L 179.452228 -258.679779 
L 178.413817 -258.679779 
L 177.375406 -258.679779 
L 176.336994 -258.679779 
L 175.298583 -258.679779 
L 174.260171 -258.679779 
L 173.22176 -258.679779 
L 172.183349 -258.679779 
L 171.144937 -258.679779 
L 170.106526 -258.679779 
L 169.068115 -258.679779 
L 168.029703 -258.679779 
L 166.991292 -258.679779 
L 165.95288 -258.679779 
L 164.914469 -258.679779 
L 163.876058 -258.679779 
L 162.837646 -258.679779 
L 161.799235 -258.679779 
L 160.760824 -258.679779 
L 159.722412 -258.679779 
L 158.684001 -258.679779 
L 157.645589 -258.679779 
L 156.607178 -258.679779 
L 155.568767 -258.679779 
L 154.530355 -258.679779 
L 153.491944 -258.679779 
L 152.453533 -258.679779 
L 151.415121 -258.679779 
L 150.37671 -258.679779 
L 149.338298 -258.679779 
L 148.299887 -258.679779 
L 147.261476 -258.679779 
L 146.223064 -258.679779 
L 145.184653 -258.679779 
L 144.146242 -258.679779 
L 143.10783 -258.679779 
L 142.069419 -258.679779 
L 141.031008 -258.679779 
L 139.992596 -258.679779 
L 138.954185 -258.679779 
L 137.915773 -258.679779 
L 136.877362 -258.679779 
L 135.838951 -258.679779 
L 134.800539 -258.679779 
L 133.762128 -258.679779 
L 132.723717 -258.679779 
L 131.685305 -258.679779 
L 130.646894 -258.679779 
L 129.608482 -258.679779 
L 128.570071 -258.679779 
L 127.53166 -258.679779 
L 126.493248 -258.679779 
L 125.454837 -258.679779 
L 124.416426 -258.679779 
L 123.378014 -258.679779 
L 122.339603 -258.679779 
L 121.301191 -258.679779 
L 120.26278 -258.679779 
L 119.224369 -258.679779 
L 118.185957 -258.679779 
L 117.147546 -258.679779 
L 116.109135 -258.679779 
L 115.070723 -258.679779 
L 114.032312 -258.679779 
L 112.993901 -258.679779 
L 111.955489 -258.679779 
L 110.917078 -258.679779 
L 109.878666 -258.679779 
L 108.840255 -258.679779 
L 107.801844 -258.679779 
L 106.763432 -258.679779 
L 105.725021 -258.679779 
L 104.68661 -258.679779 
L 103.648198 -258.679779 
L 102.609787 -258.679779 
L 101.571375 -258.679779 
L 100.532964 -258.679779 
L 99.494553 -258.679779 
L 98.456141 -258.679779 
L 97.41773 -258.679779 
L 96.379319 -258.679779 
L 95.340907 -258.679779 
L 94.302496 -258.679779 
L 93.264084 -258.679779 
L 92.225673 -258.679779 
L 91.187262 -258.679779 
L 90.14885 -258.679779 
L 89.110439 -258.679779 
L 88.072028 -258.679779 
L 87.033616 -258.679779 
L 85.995205 -258.679779 
L 84.956793 -258.679779 
L 83.918382 -258.679779 
L 82.879971 -258.679779 
L 81.841559 -258.679779 
L 80.803148 -258.679779 
L 79.764737 -258.679779 
L 78.726325 -258.679779 
L 77.687914 -258.679779 
L 76.649503 -258.679779 
L 75.611091 -258.679779 
L 74.57268 -258.679779 
L 73.534268 -258.679779 
L 72.495857 -246.717985 
L 71.457446 -246.717985 
L 70.419034 -246.717985 
L 69.380623 -246.717985 
L 68.342212 -246.717985 
L 67.3038 -246.717985 
L 66.265389 -246.717985 
L 65.226977 -246.717985 
L 64.188566 -246.717985 
L 63.150155 -246.717985 
L 62.111743 -246.717985 
L 61.073332 -246.717985 
L 60.034921 -246.717985 
L 58.996509 -246.717985 
L 57.958098 -246.717985 
L 56.919686 -246.717985 
L 55.881275 -246.717985 
L 54.842864 -246.717985 
L 53.804452 -246.717985 
L 52.766041 -246.717985 
L 51.72763 -246.717985 
L 50.689218 -246.717985 
L 49.650807 -246.717985 
L 48.612395 -246.717985 
L 47.573984 -246.717985 
L 46.535573 -246.717985 
L 45.497161 -246.717985 
L 44.45875 -38.85625 
z
"/>
    </defs>
    <g clip-path="url(#pe3dcda58a0)">
     <use xlink:href="#m23bd55cbae" x="0" y="318.51625" style="fill: #0072b2; fill-opacity: 0.16"/>
    </g>
   </g>
   <g id="line2d_13">
    <path d="M 44.45875 279.66 
L 45.497161 123.475382 
L 72.495857 123.475382 
L 73.534268 94.568588 
L 74.57268 94.568588 
L 75.611091 85.336 
L 100.532964 85.336 
L 101.571375 73.905176 
L 105.725021 73.905176 
L 106.763432 72.586235 
L 128.570071 72.586235 
L 129.608482 68.409588 
L 136.877362 68.409588 
L 137.915773 67.530294 
L 156.607178 67.530294 
L 157.645589 66.431176 
L 168.029703 66.431176 
L 169.068115 65.991529 
L 184.644285 65.991529 
L 185.682696 65.441971 
L 199.182044 65.441971 
L 200.220456 65.002324 
L 213.719804 65.002324 
L 214.758215 62.254529 
L 241.756911 62.254529 
L 242.795322 61.814882 
L 261.486727 61.814882 
L 262.525138 60.935588 
L 269.794018 60.935588 
L 270.832429 60.375001 
L 304.061593 59.836471 
L 354.94375 59.836471 
L 354.94375 59.836471 
" clip-path="url(#pe3dcda58a0)" style="fill: none; stroke: #0072b2; stroke-width: 2.3; stroke-linecap: round"/>
   </g>
   <g id="line2d_14">
    <path d="M 44.45875 279.66 
L 354.94375 59.836471 
" clip-path="url(#pe3dcda58a0)" style="fill: none; stroke-dasharray: 3.7,1.6; stroke-dashoffset: 0; stroke: #666666"/>
   </g>
   <g id="patch_3">
    <path d="M 44.45875 279.66 
L 44.45875 55.44 
" style="fill: none; stroke: #262626; stroke-linejoin: miter; stroke-linecap: square"/>
   </g>
   <g id="patch_4">
    <path d="M 44.45875 279.66 
L 354.94375 279.66 
" style="fill: none; stroke: #262626; stroke-linejoin: miter; stroke-linecap: square"/>
   </g>
   <g id="text_15">
    <text style="font-weight: 700; font-size: 12px; font-family: 'DejaVu Sans', 'Arial', sans-serif; text-anchor: middle; fill: #262626" x="199.70125" y="49.44" transform="rotate(-0 199.70125 49.44)">a  ROC curve</text>
   </g>
   <g id="legend_1">
    <g id="line2d_15">
     <path d="M 209.891875 253.327969 
L 218.891875 253.327969 
L 227.891875 253.327969 
" style="fill: none; stroke: #0072b2; stroke-width: 2.3; stroke-linecap: round"/>
    </g>
    <g id="text_16">
     <text style="font-size: 9px; font-family: 'DejaVu Sans', 'Arial', sans-serif; text-anchor: start; fill: #262626" x="235.091875" y="256.477969" transform="rotate(-0 235.091875 256.477969)">Mean ROC-AUC = 0.947</text>
    </g>
    <g id="patch_5">
     <path d="M 209.891875 269.688281 
L 227.891875 269.688281 
L 227.891875 263.388281 
L 209.891875 263.388281 
z
" style="fill: #0072b2; fill-opacity: 0.16"/>
    </g>
    <g id="text_17">
     <text style="font-size: 9px; font-family: 'DejaVu Sans', 'Arial', sans-serif; text-anchor: start; fill: #262626" x="235.091875" y="269.688281" transform="rotate(-0 235.091875 269.688281)">±1 SD across outer folds</text>
    </g>
   </g>
  </g>
  <g id="axes_2">
   <g id="patch_6">
    <path d="M 412.37875 279.66 
L 722.86375 279.66 
L 722.86375 55.44 
L 412.37875 55.44 
z
" style="fill: #ffffff"/>
   </g>
   <g id="matplotlib.axis_3">
    <g id="xtick_7">
     <g id="line2d_16">
      <g>
       <use xlink:href="#m5c785a90ad" x="412.37875" y="279.66" style="fill: #262626; stroke: #262626"/>
      </g>
     </g>
     <g id="text_18">
      <text style="font-size: 9px; font-family: 'DejaVu Sans', 'Arial', sans-serif; text-anchor: middle; fill: #262626" x="412.37875" y="294.798594" transform="rotate(-0 412.37875 294.798594)">0.0</text>
     </g>
    </g>
    <g id="xtick_8">
     <g id="line2d_17">
      <g>
       <use xlink:href="#m5c785a90ad" x="474.47575" y="279.66" style="fill: #262626; stroke: #262626"/>
      </g>
     </g>
     <g id="text_19">
      <text style="font-size: 9px; font-family: 'DejaVu Sans', 'Arial', sans-serif; text-anchor: middle; fill: #262626" x="474.47575" y="294.798594" transform="rotate(-0 474.47575 294.798594)">0.2</text>
     </g>
    </g>
    <g id="xtick_9">
     <g id="line2d_18">
      <g>
       <use xlink:href="#m5c785a90ad" x="536.57275" y="279.66" style="fill: #262626; stroke: #262626"/>
      </g>
     </g>
     <g id="text_20">
      <text style="font-size: 9px; font-family: 'DejaVu Sans', 'Arial', sans-serif; text-anchor: middle; fill: #262626" x="536.57275" y="294.798594" transform="rotate(-0 536.57275 294.798594)">0.4</text>
     </g>
    </g>
    <g id="xtick_10">
     <g id="line2d_19">
      <g>
       <use xlink:href="#m5c785a90ad" x="598.66975" y="279.66" style="fill: #262626; stroke: #262626"/>
      </g>
     </g>
     <g id="text_21">
      <text style="font-size: 9px; font-family: 'DejaVu Sans', 'Arial', sans-serif; text-anchor: middle; fill: #262626" x="598.66975" y="294.798594" transform="rotate(-0 598.66975 294.798594)">0.6</text>
     </g>
    </g>
    <g id="xtick_11">
     <g id="line2d_20">
      <g>
       <use xlink:href="#m5c785a90ad" x="660.76675" y="279.66" style="fill: #262626; stroke: #262626"/>
      </g>
     </g>
     <g id="text_22">
      <text style="font-size: 9px; font-family: 'DejaVu Sans', 'Arial', sans-serif; text-anchor: middle; fill: #262626" x="660.76675" y="294.798594" transform="rotate(-0 660.76675 294.798594)">0.8</text>
     </g>
    </g>
    <g id="xtick_12">
     <g id="line2d_21">
      <g>
       <use xlink:href="#m5c785a90ad" x="722.86375" y="279.66" style="fill: #262626; stroke: #262626"/>
      </g>
     </g>
     <g id="text_23">
      <text style="font-size: 9px; font-family: 'DejaVu Sans', 'Arial', sans-serif; text-anchor: middle; fill: #262626" x="722.86375" y="294.798594" transform="rotate(-0 722.86375 294.798594)">1.0</text>
     </g>
    </g>
    <g id="text_24">
     <text style="font-size: 11px; font-family: 'DejaVu Sans', 'Arial', sans-serif; text-anchor: middle; fill: #262626" x="567.62125" y="309.028594" transform="rotate(-0 567.62125 309.028594)">Recall</text>
    </g>
   </g>
   <g id="matplotlib.axis_4">
    <g id="ytick_7">
     <g id="line2d_22">
      <g>
       <use xlink:href="#m25b122701e" x="412.37875" y="279.66" style="fill: #262626; stroke: #262626"/>
      </g>
     </g>
     <g id="text_25">
      <text style="font-size: 9px; font-family: 'DejaVu Sans', 'Arial', sans-serif; text-anchor: end; fill: #262626" x="404.07875" y="283.079297" transform="rotate(-0 404.07875 283.079297)">0.0</text>
     </g>
    </g>
    <g id="ytick_8">
     <g id="line2d_23">
      <g>
       <use xlink:href="#m25b122701e" x="412.37875" y="235.695294" style="fill: #262626; stroke: #262626"/>
      </g>
     </g>
     <g id="text_26">
      <text style="font-size: 9px; font-family: 'DejaVu Sans', 'Arial', sans-serif; text-anchor: end; fill: #262626" x="404.07875" y="239.114591" transform="rotate(-0 404.07875 239.114591)">0.2</text>
     </g>
    </g>
    <g id="ytick_9">
     <g id="line2d_24">
      <g>
       <use xlink:href="#m25b122701e" x="412.37875" y="191.730588" style="fill: #262626; stroke: #262626"/>
      </g>
     </g>
     <g id="text_27">
      <text style="font-size: 9px; font-family: 'DejaVu Sans', 'Arial', sans-serif; text-anchor: end; fill: #262626" x="404.07875" y="195.149885" transform="rotate(-0 404.07875 195.149885)">0.4</text>
     </g>
    </g>
    <g id="ytick_10">
     <g id="line2d_25">
      <g>
       <use xlink:href="#m25b122701e" x="412.37875" y="147.765882" style="fill: #262626; stroke: #262626"/>
      </g>
     </g>
     <g id="text_28">
      <text style="font-size: 9px; font-family: 'DejaVu Sans', 'Arial', sans-serif; text-anchor: end; fill: #262626" x="404.07875" y="151.185179" transform="rotate(-0 404.07875 151.185179)">0.6</text>
     </g>
    </g>
    <g id="ytick_11">
     <g id="line2d_26">
      <g>
       <use xlink:href="#m25b122701e" x="412.37875" y="103.801176" style="fill: #262626; stroke: #262626"/>
      </g>
     </g>
     <g id="text_29">
      <text style="font-size: 9px; font-family: 'DejaVu Sans', 'Arial', sans-serif; text-anchor: end; fill: #262626" x="404.07875" y="107.220473" transform="rotate(-0 404.07875 107.220473)">0.8</text>
     </g>
    </g>
    <g id="ytick_12">
     <g id="line2d_27">
      <g>
       <use xlink:href="#m25b122701e" x="412.37875" y="59.836471" style="fill: #262626; stroke: #262626"/>
      </g>
     </g>
     <g id="text_30">
      <text style="font-size: 9px; font-family: 'DejaVu Sans', 'Arial', sans-serif; text-anchor: end; fill: #262626" x="404.07875" y="63.255767" transform="rotate(-0 404.07875 63.255767)">1.0</text>
     </g>
    </g>
    <g id="text_31">
     <text style="font-size: 11px; font-family: 'DejaVu Sans', 'Arial', sans-serif; text-anchor: middle; fill: #262626" x="383.478281" y="167.55" transform="rotate(-90 383.478281 167.55)">Precision</text>
    </g>
   </g>
   <g id="FillBetweenPolyCollection_2">
    <defs>
     <path id="m20924a4095" d="M 412.37875 -258.679779 
L 412.37875 -234.609379 
L 413.417161 -234.689882 
L 414.455573 -234.770385 
L 415.493984 -234.850888 
L 416.532395 -234.931391 
L 417.570807 -235.011894 
L 418.609218 -235.092397 
L 419.64763 -235.1729 
L 420.686041 -235.253403 
L 421.724452 -235.333906 
L 422.762864 -235.414409 
L 423.801275 -235.494912 
L 424.839686 -235.575415 
L 425.878098 -235.655918 
L 426.916509 -235.736421 
L 427.954921 -235.816924 
L 428.993332 -235.897427 
L 430.031743 -235.97793 
L 431.070155 -236.058433 
L 432.108566 -236.138936 
L 433.146977 -236.219439 
L 434.185389 -236.299942 
L 435.2238 -236.380445 
L 436.262212 -236.460948 
L 437.300623 -236.541451 
L 438.339034 -236.621954 
L 439.377446 -236.702457 
L 440.415857 -236.78296 
L 441.454268 -236.863463 
L 442.49268 -236.943966 
L 443.531091 -237.024469 
L 444.569503 -237.104972 
L 445.607914 -237.185475 
L 446.646325 -237.265978 
L 447.684737 -237.346481 
L 448.723148 -237.426984 
L 449.761559 -237.507488 
L 450.799971 -237.587991 
L 451.838382 -237.668494 
L 452.876793 -237.748997 
L 453.915205 -237.8295 
L 454.953616 -237.910003 
L 455.992028 -237.990506 
L 457.030439 -238.071009 
L 458.06885 -238.151512 
L 459.107262 -238.232015 
L 460.145673 -238.312518 
L 461.184084 -238.393021 
L 462.222496 -238.473524 
L 463.260907 -238.554027 
L 464.299319 -238.63453 
L 465.33773 -238.715033 
L 466.376141 -238.795536 
L 467.414553 -238.876039 
L 468.452964 -238.956542 
L 469.491375 -239.037045 
L 470.529787 -239.117548 
L 471.568198 -239.198051 
L 472.60661 -239.278554 
L 473.645021 -239.359057 
L 474.683432 -239.43956 
L 475.721844 -239.520063 
L 476.760255 -239.600566 
L 477.798666 -239.681069 
L 478.837078 -239.761572 
L 479.875489 -239.842075 
L 480.913901 -239.922578 
L 481.952312 -240.003081 
L 482.990723 -240.083584 
L 484.029135 -240.164087 
L 485.067546 -240.24459 
L 486.105957 -240.325093 
L 487.144369 -240.405596 
L 488.18278 -240.486099 
L 489.221191 -240.566602 
L 490.259603 -220.981952 
L 491.298014 -221.122799 
L 492.336426 -221.263625 
L 493.374837 -221.404432 
L 494.413248 -221.545218 
L 495.45166 -221.685984 
L 496.490071 -221.826729 
L 497.528482 -221.967453 
L 498.566894 -222.108156 
L 499.605305 -222.248837 
L 500.643717 -222.389497 
L 501.682128 -222.530135 
L 502.720539 -222.670751 
L 503.758951 -222.811345 
L 504.797362 -222.951915 
L 505.835773 -223.092463 
L 506.874185 -223.232988 
L 507.912596 -223.373489 
L 508.951008 -223.513966 
L 509.989419 -223.654419 
L 511.02783 -223.794848 
L 512.066242 -223.935252 
L 513.104653 -224.075632 
L 514.143064 -224.215986 
L 515.181476 -224.356314 
L 516.219887 -224.496617 
L 517.258298 -224.636893 
L 518.29671 -224.777143 
L 519.335121 -224.917366 
L 520.373533 -225.057562 
L 521.411944 -225.197731 
L 522.450355 -225.337871 
L 523.488767 -225.477984 
L 524.527178 -225.618067 
L 525.565589 -225.758122 
L 526.604001 -225.898148 
L 527.642412 -226.038144 
L 528.680824 -226.17811 
L 529.719235 -226.318046 
L 530.757646 -226.457951 
L 531.796058 -226.597824 
L 532.834469 -226.737666 
L 533.87288 -226.877477 
L 534.911292 -227.017254 
L 535.949703 -227.156999 
L 536.988115 -218.399404 
L 538.026526 -218.575098 
L 539.064937 -218.750762 
L 540.103349 -218.926397 
L 541.14176 -219.102001 
L 542.180171 -219.277575 
L 543.218583 -219.453118 
L 544.256994 -219.62863 
L 545.295406 -219.804109 
L 546.333817 -219.979557 
L 547.372228 -220.154972 
L 548.41064 -220.330353 
L 549.449051 -220.505702 
L 550.487462 -220.681016 
L 551.525874 -220.856295 
L 552.564285 -221.03154 
L 553.602696 -221.206749 
L 554.641108 -221.381922 
L 555.679519 -221.557059 
L 556.717931 -221.732159 
L 557.756342 -221.907221 
L 558.794753 -222.082246 
L 559.833165 -222.257231 
L 560.871576 -222.432178 
L 561.909987 -222.607085 
L 562.948399 -222.781951 
L 563.98681 -222.956777 
L 565.025222 -223.131562 
L 566.063633 -223.306304 
L 567.102044 -223.481004 
L 568.140456 -196.398757 
L 569.178867 -196.595594 
L 570.217278 -196.792402 
L 571.25569 -196.989181 
L 572.294101 -197.185931 
L 573.332513 -197.382651 
L 574.370924 -197.579342 
L 575.409335 -197.776002 
L 576.447747 -197.972632 
L 577.486158 -198.169232 
L 578.524569 -198.365801 
L 579.562981 -198.562338 
L 580.601392 -198.758844 
L 581.639804 -198.955318 
L 582.678215 -199.15176 
L 583.716626 -199.348169 
L 584.755038 -199.544546 
L 585.793449 -199.74089 
L 586.83186 -199.9372 
L 587.870272 -200.133477 
L 588.908683 -200.329719 
L 589.947094 -200.525927 
L 590.985506 -200.722101 
L 592.023917 -200.918239 
L 593.062329 -201.114342 
L 594.10074 -201.310409 
L 595.139151 -201.506441 
L 596.177563 -201.702435 
L 597.215974 -201.898393 
L 598.254385 -202.094314 
L 599.292797 -191.863382 
L 600.331208 -192.074476 
L 601.36962 -192.285557 
L 602.408031 -192.496623 
L 603.446442 -192.707674 
L 604.484854 -192.918712 
L 605.523265 -193.129734 
L 606.561676 -193.340742 
L 607.600088 -193.551734 
L 608.638499 -193.762712 
L 609.676911 -193.973674 
L 610.715322 -194.184621 
L 611.753733 -194.395552 
L 612.792145 -194.606468 
L 613.830556 -194.817368 
L 614.868967 -195.028252 
L 615.907379 -195.239119 
L 616.94579 -195.449971 
L 617.984202 -195.660805 
L 619.022613 -195.871624 
L 620.061024 -196.082425 
L 621.099436 -196.293209 
L 622.137847 -196.503977 
L 623.176258 -196.714727 
L 624.21467 -196.925459 
L 625.253081 -197.136174 
L 626.291492 -197.346871 
L 627.329904 -197.55755 
L 628.368315 -197.768211 
L 629.406727 -197.978854 
L 630.445138 -198.189478 
L 631.483549 -198.400083 
L 632.521961 -198.610669 
L 633.560372 -198.821236 
L 634.598783 -199.031784 
L 635.637195 -199.242312 
L 636.675606 -199.452821 
L 637.714018 -199.66331 
L 638.752429 -199.873778 
L 639.79084 -200.084226 
L 640.829252 -200.294654 
L 641.867663 -200.505061 
L 642.906074 -200.715447 
L 643.944486 -200.925811 
L 644.982897 -201.136154 
L 646.021309 -166.711959 
L 647.05972 -166.894954 
L 648.098131 -167.077894 
L 649.136543 -167.260779 
L 650.174954 -167.443608 
L 651.213365 -167.626383 
L 652.251777 -167.809101 
L 653.290188 -167.991764 
L 654.328599 -168.17437 
L 655.367011 -168.35692 
L 656.405422 -168.539413 
L 657.443834 -168.721849 
L 658.482245 -168.904227 
L 659.520656 -169.086548 
L 660.559068 -169.268811 
L 661.597479 -156.402488 
L 662.63589 -156.589619 
L 663.674302 -156.77672 
L 664.712713 -156.963789 
L 665.751125 -157.150826 
L 666.789536 -157.337833 
L 667.827947 -157.524807 
L 668.866359 -157.711749 
L 669.90477 -157.89866 
L 670.943181 -158.085538 
L 671.981593 -158.272384 
L 673.020004 -158.459198 
L 674.058416 -158.645979 
L 675.096827 -158.832727 
L 676.135238 -159.019443 
L 677.17365 -159.206125 
L 678.212061 -159.392775 
L 679.250472 -159.57939 
L 680.288884 -159.765973 
L 681.327295 -159.952522 
L 682.365707 -160.139037 
L 683.404118 -160.325518 
L 684.442529 -160.511965 
L 685.480941 -160.698377 
L 686.519352 -160.884756 
L 687.557763 -161.071099 
L 688.596175 -161.257408 
L 689.634586 -161.443682 
L 690.672997 -161.629921 
L 691.711409 -161.816125 
L 692.74982 -162.002293 
L 693.788232 -162.188426 
L 694.826643 -162.374523 
L 695.865054 -162.560584 
L 696.903466 -162.74661 
L 697.941877 -162.932599 
L 698.980288 -163.118551 
L 700.0187 -163.304467 
L 701.057111 -163.490347 
L 702.095523 -163.676189 
L 703.133934 -163.861994 
L 704.172345 -164.047763 
L 705.210757 -164.233493 
L 706.249168 -164.419186 
L 707.287579 -164.604842 
L 708.325991 -164.790459 
L 709.364402 -164.976039 
L 710.402814 -165.16158 
L 711.441225 -165.347082 
L 712.479636 -165.532546 
L 713.518048 -165.717971 
L 714.556459 -165.903357 
L 715.59487 -166.088704 
L 716.633282 -166.274011 
L 717.671693 -166.459279 
L 718.710105 -166.644507 
L 719.748516 -166.829695 
L 720.786927 -167.014843 
L 721.825339 -167.199951 
L 722.86375 -96.193554 
L 722.86375 -108.650221 
L 722.86375 -108.650221 
L 721.825339 -251.481122 
L 720.786927 -251.429631 
L 719.748516 -251.378181 
L 718.710105 -251.326771 
L 717.671693 -251.2754 
L 716.633282 -251.22407 
L 715.59487 -251.172779 
L 714.556459 -251.121528 
L 713.518048 -251.070315 
L 712.479636 -251.019142 
L 711.441225 -250.968008 
L 710.402814 -250.916912 
L 709.364402 -250.865855 
L 708.325991 -250.814836 
L 707.287579 -250.763855 
L 706.249168 -250.712912 
L 705.210757 -250.662007 
L 704.172345 -250.611139 
L 703.133934 -250.560309 
L 702.095523 -250.509516 
L 701.057111 -250.458761 
L 700.0187 -250.408042 
L 698.980288 -250.357359 
L 697.941877 -250.306714 
L 696.903466 -250.256104 
L 695.865054 -250.205531 
L 694.826643 -250.154994 
L 693.788232 -250.104493 
L 692.74982 -250.054028 
L 691.711409 -250.003598 
L 690.672997 -249.953203 
L 689.634586 -249.902844 
L 688.596175 -249.85252 
L 687.557763 -249.802231 
L 686.519352 -249.751976 
L 685.480941 -249.701756 
L 684.442529 -249.65157 
L 683.404118 -249.601419 
L 682.365707 -249.551302 
L 681.327295 -249.501219 
L 680.288884 -249.451169 
L 679.250472 -249.401153 
L 678.212061 -249.351171 
L 677.17365 -249.301222 
L 676.135238 -249.251306 
L 675.096827 -249.201423 
L 674.058416 -249.151573 
L 673.020004 -249.101756 
L 671.981593 -249.051971 
L 670.943181 -249.002219 
L 669.90477 -248.952499 
L 668.866359 -248.902812 
L 667.827947 -248.853156 
L 666.789536 -248.803532 
L 665.751125 -248.75394 
L 664.712713 -248.704379 
L 663.674302 -248.65485 
L 662.63589 -248.605352 
L 661.597479 -248.555886 
L 660.559068 -258.679779 
L 659.520656 -258.679779 
L 658.482245 -258.679779 
L 657.443834 -258.679779 
L 656.405422 -258.679779 
L 655.367011 -258.679779 
L 654.328599 -258.679779 
L 653.290188 -258.679779 
L 652.251777 -258.679779 
L 651.213365 -258.679779 
L 650.174954 -258.679779 
L 649.136543 -258.679779 
L 648.098131 -258.679779 
L 647.05972 -258.679779 
L 646.021309 -258.679779 
L 644.982897 -258.679779 
L 643.944486 -258.679779 
L 642.906074 -258.679779 
L 641.867663 -258.679779 
L 640.829252 -258.679779 
L 639.79084 -258.679779 
L 638.752429 -258.679779 
L 637.714018 -258.679779 
L 636.675606 -258.679779 
L 635.637195 -258.679779 
L 634.598783 -258.679779 
L 633.560372 -258.679779 
L 632.521961 -258.679779 
L 631.483549 -258.679779 
L 630.445138 -258.679779 
L 629.406727 -258.679779 
L 628.368315 -258.679779 
L 627.329904 -258.679779 
L 626.291492 -258.679779 
L 625.253081 -258.679779 
L 624.21467 -258.679779 
L 623.176258 -258.679779 
L 622.137847 -258.679779 
L 621.099436 -258.679779 
L 620.061024 -258.679779 
L 619.022613 -258.679779 
L 617.984202 -258.679779 
L 616.94579 -258.679779 
L 615.907379 -258.679779 
L 614.868967 -258.679779 
L 613.830556 -258.679779 
L 612.792145 -258.679779 
L 611.753733 -258.679779 
L 610.715322 -258.679779 
L 609.676911 -258.679779 
L 608.638499 -258.679779 
L 607.600088 -258.679779 
L 606.561676 -258.679779 
L 605.523265 -258.679779 
L 604.484854 -258.679779 
L 603.446442 -258.679779 
L 602.408031 -258.679779 
L 601.36962 -258.679779 
L 600.331208 -258.679779 
L 599.292797 -258.679779 
L 598.254385 -258.679779 
L 597.215974 -258.679779 
L 596.177563 -258.679779 
L 595.139151 -258.679779 
L 594.10074 -258.679779 
L 593.062329 -258.679779 
L 592.023917 -258.679779 
L 590.985506 -258.679779 
L 589.947094 -258.679779 
L 588.908683 -258.679779 
L 587.870272 -258.679779 
L 586.83186 -258.679779 
L 585.793449 -258.679779 
L 584.755038 -258.679779 
L 583.716626 -258.679779 
L 582.678215 -258.679779 
L 581.639804 -258.679779 
L 580.601392 -258.679779 
L 579.562981 -258.679779 
L 578.524569 -258.679779 
L 577.486158 -258.679779 
L 576.447747 -258.679779 
L 575.409335 -258.679779 
L 574.370924 -258.679779 
L 573.332513 -258.679779 
L 572.294101 -258.679779 
L 571.25569 -258.679779 
L 570.217278 -258.679779 
L 569.178867 -258.679779 
L 568.140456 -258.679779 
L 567.102044 -258.679779 
L 566.063633 -258.679779 
L 565.025222 -258.679779 
L 563.98681 -258.679779 
L 562.948399 -258.679779 
L 561.909987 -258.679779 
L 560.871576 -258.679779 
L 559.833165 -258.679779 
L 558.794753 -258.679779 
L 557.756342 -258.679779 
L 556.717931 -258.679779 
L 555.679519 -258.679779 
L 554.641108 -258.679779 
L 553.602696 -258.679779 
L 552.564285 -258.679779 
L 551.525874 -258.679779 
L 550.487462 -258.679779 
L 549.449051 -258.679779 
L 548.41064 -258.679779 
L 547.372228 -258.679779 
L 546.333817 -258.679779 
L 545.295406 -258.679779 
L 544.256994 -258.679779 
L 543.218583 -258.679779 
L 542.180171 -258.679779 
L 541.14176 -258.679779 
L 540.103349 -258.679779 
L 539.064937 -258.679779 
L 538.026526 -258.679779 
L 536.988115 -258.679779 
L 535.949703 -258.679779 
L 534.911292 -258.679779 
L 533.87288 -258.679779 
L 532.834469 -258.679779 
L 531.796058 -258.679779 
L 530.757646 -258.679779 
L 529.719235 -258.679779 
L 528.680824 -258.679779 
L 527.642412 -258.679779 
L 526.604001 -258.679779 
L 525.565589 -258.679779 
L 524.527178 -258.679779 
L 523.488767 -258.679779 
L 522.450355 -258.679779 
L 521.411944 -258.679779 
L 520.373533 -258.679779 
L 519.335121 -258.679779 
L 518.29671 -258.679779 
L 517.258298 -258.679779 
L 516.219887 -258.679779 
L 515.181476 -258.679779 
L 514.143064 -258.679779 
L 513.104653 -258.679779 
L 512.066242 -258.679779 
L 511.02783 -258.679779 
L 509.989419 -258.679779 
L 508.951008 -258.679779 
L 507.912596 -258.679779 
L 506.874185 -258.679779 
L 505.835773 -258.679779 
L 504.797362 -258.679779 
L 503.758951 -258.679779 
L 502.720539 -258.679779 
L 501.682128 -258.679779 
L 500.643717 -258.679779 
L 499.605305 -258.679779 
L 498.566894 -258.679779 
L 497.528482 -258.679779 
L 496.490071 -258.679779 
L 495.45166 -258.679779 
L 494.413248 -258.679779 
L 493.374837 -258.679779 
L 492.336426 -258.679779 
L 491.298014 -258.679779 
L 490.259603 -258.679779 
L 489.221191 -258.679779 
L 488.18278 -258.679779 
L 487.144369 -258.679779 
L 486.105957 -258.679779 
L 485.067546 -258.679779 
L 484.029135 -258.679779 
L 482.990723 -258.679779 
L 481.952312 -258.679779 
L 480.913901 -258.679779 
L 479.875489 -258.679779 
L 478.837078 -258.679779 
L 477.798666 -258.679779 
L 476.760255 -258.679779 
L 475.721844 -258.679779 
L 474.683432 -258.679779 
L 473.645021 -258.679779 
L 472.60661 -258.679779 
L 471.568198 -258.679779 
L 470.529787 -258.679779 
L 469.491375 -258.679779 
L 468.452964 -258.679779 
L 467.414553 -258.679779 
L 466.376141 -258.679779 
L 465.33773 -258.679779 
L 464.299319 -258.679779 
L 463.260907 -258.679779 
L 462.222496 -258.679779 
L 461.184084 -258.679779 
L 460.145673 -258.679779 
L 459.107262 -258.679779 
L 458.06885 -258.679779 
L 457.030439 -258.679779 
L 455.992028 -258.679779 
L 454.953616 -258.679779 
L 453.915205 -258.679779 
L 452.876793 -258.679779 
L 451.838382 -258.679779 
L 450.799971 -258.679779 
L 449.761559 -258.679779 
L 448.723148 -258.679779 
L 447.684737 -258.679779 
L 446.646325 -258.679779 
L 445.607914 -258.679779 
L 444.569503 -258.679779 
L 443.531091 -258.679779 
L 442.49268 -258.679779 
L 441.454268 -258.679779 
L 440.415857 -258.679779 
L 439.377446 -258.679779 
L 438.339034 -258.679779 
L 437.300623 -258.679779 
L 436.262212 -258.679779 
L 435.2238 -258.679779 
L 434.185389 -258.679779 
L 433.146977 -258.679779 
L 432.108566 -258.679779 
L 431.070155 -258.679779 
L 430.031743 -258.679779 
L 428.993332 -258.679779 
L 427.954921 -258.679779 
L 426.916509 -258.679779 
L 425.878098 -258.679779 
L 424.839686 -258.679779 
L 423.801275 -258.679779 
L 422.762864 -258.679779 
L 421.724452 -258.679779 
L 420.686041 -258.679779 
L 419.64763 -258.679779 
L 418.609218 -258.679779 
L 417.570807 -258.679779 
L 416.532395 -258.679779 
L 415.493984 -258.679779 
L 414.455573 -258.679779 
L 413.417161 -258.679779 
L 412.37875 -258.679779 
z
"/>
    </defs>
    <g clip-path="url(#p398706fd9d)">
     <use xlink:href="#m20924a4095" x="0" y="318.51625" style="fill: #d55e00; fill-opacity: 0.16"/>
    </g>
   </g>
   <g id="line2d_28">
    <path d="M 412.37875 62.034706 
L 489.221191 61.490661 
L 490.259603 67.339878 
L 535.949703 66.0675 
L 536.988115 70.427701 
L 567.102044 69.05607 
L 568.140456 83.501687 
L 598.254385 81.234588 
L 599.292797 89.498573 
L 644.982897 85.24242 
L 646.021309 105.593783 
L 660.559068 104.088292 
L 661.597479 116.037063 
L 721.825339 109.175714 
L 722.86375 216.094363 
L 722.86375 216.094363 
" clip-path="url(#p398706fd9d)" style="fill: none; stroke: #d55e00; stroke-width: 2.3; stroke-linecap: round"/>
   </g>
   <g id="line2d_29">
    <path d="M 412.37875 216.026873 
L 722.86375 216.026873 
" clip-path="url(#p398706fd9d)" style="fill: none; stroke-dasharray: 3.7,1.6; stroke-dashoffset: 0; stroke: #666666"/>
   </g>
   <g id="patch_7">
    <path d="M 412.37875 279.66 
L 412.37875 55.44 
" style="fill: none; stroke: #262626; stroke-linejoin: miter; stroke-linecap: square"/>
   </g>
   <g id="patch_8">
    <path d="M 412.37875 279.66 
L 722.86375 279.66 
" style="fill: none; stroke: #262626; stroke-linejoin: miter; stroke-linecap: square"/>
   </g>
   <g id="text_32">
    <text style="font-weight: 700; font-size: 12px; font-family: 'DejaVu Sans', 'Arial', sans-serif; text-anchor: middle; fill: #262626" x="567.62125" y="49.44" transform="rotate(-0 567.62125 49.44)">b  Precision–recall curve</text>
   </g>
   <g id="legend_2">
    <g id="line2d_30">
     <path d="M 420.47875 240.117656 
L 429.47875 240.117656 
L 438.47875 240.117656 
" style="fill: none; stroke: #d55e00; stroke-width: 2.3; stroke-linecap: round"/>
    </g>
    <g id="text_33">
     <text style="font-size: 9px; font-family: 'DejaVu Sans', 'Arial', sans-serif; text-anchor: start; fill: #262626" x="445.67875" y="243.267656" transform="rotate(-0 445.67875 243.267656)">Mean PR-AUC = 0.911</text>
    </g>
    <g id="patch_9">
     <path d="M 420.47875 256.477969 
L 438.47875 256.477969 
L 438.47875 250.177969 
L 420.47875 250.177969 
z
" style="fill: #d55e00; fill-opacity: 0.16"/>
    </g>
    <g id="text_34">
     <text style="font-size: 9px; font-family: 'DejaVu Sans', 'Arial', sans-serif; text-anchor: start; fill: #262626" x="445.67875" y="256.477969" transform="rotate(-0 445.67875 256.477969)">±1 SD across outer folds</text>
    </g>
    <g id="line2d_31">
     <path d="M 420.47875 266.538281 
L 429.47875 266.538281 
L 438.47875 266.538281 
" style="fill: none; stroke-dasharray: 3.7,1.6; stroke-dashoffset: 0; stroke: #666666"/>
    </g>
    <g id="text_35">
     <text style="font-size: 9px; font-family: 'DejaVu Sans', 'Arial', sans-serif; text-anchor: start; fill: #262626" x="445.67875" y="269.688281" transform="rotate(-0 445.67875 269.688281)">Positive prevalence = 0.29</text>
    </g>
   </g>
  </g>
  <g id="text_36">
   <text style="font-weight: 700; font-size: 14px; font-family: 'DejaVu Sans', 'Arial', sans-serif; text-anchor: middle; fill: #262626" x="368.54875" y="17.837812" transform="rotate(-0 368.54875 17.837812)">Scenario B</text>
  </g>
 </g>
 <defs>
  <clipPath id="pe3dcda58a0">
   <rect x="44.45875" y="55.44" width="310.485" height="224.22"/>
  </clipPath>
  <clipPath id="p398706fd9d">
   <rect x="412.37875" y="55.44" width="310.485" height="224.22"/>
  </clipPath>
 </defs>
</svg>
